<?xml version="1.0" standalone="no"?><svg xmlns="http://www.w3.org/2000/svg" viewBox="0 0 1440 320"><path fill="#00cba9" fill-opacity="1" d="M0,32L26.7,58.7C53.3,85,107,139,160,144C213.3,149,267,107,320,85.3C373.3,64,427,64,480,69.3C533.3,75,587,85,640,96C693.3,107,747,117,800,144C853.3,171,907,213,960,245.3C1013.3,277,1067,299,1120,298.7C1173.3,299,1227,277,1280,261.3C1333.3,245,1387,235,1413,229.3L1440,224L1440,320L1413.3,320C1386.7,320,1333,320,1280,320C1226.7,320,1173,320,1120,320C1066.7,320,1013,320,960,320C906.7,320,853,320,800,320C746.7,320,693,320,640,320C586.7,320,533,320,480,320C426.7,320,373,320,320,320C266.7,320,213,320,160,320C106.7,320,53,320,27,320L0,320Z"></path></svg>